{
	"asset":{
		"generator":"Khronos glTF Blender I/O v4.4.55",
		"version":"2.0"
	},
	"extensionsUsed":[
		"KHR_materials_specular",
		"KHR_materials_ior"
	],
	"scene":0,
	"scenes":[
		{
			"name":"Scene",
			"nodes":[
				0,
				1,
				2,
				3,
				4,
				5,
				6,
				7,
				8
			]
		}
	],
	"nodes":[
		{
			"mesh":0,
			"name":"UO_215.001",
			"rotation":[
				0,
				-0.7071070075035095,
				-0.7071065902709961,
				5.338508657359853e-08
			],
			"scale":[
				0.04360457509756088,
				0.043604571372270584,
				0.043604571372270584
			],
			"translation":[
				0.0026857899501919746,
				6.861637592315674,
				-2.0402400493621826
			]
		},
		{
			"mesh":1,
			"name":"Sphere",
			"rotation":[
				0,
				-1,
				0,
				7.549790836947068e-08
			],
			"scale":[
				0.644683301448822,
				0.644683301448822,
				0.644683301448822
			],
			"translation":[
				0.002051115036010742,
				23.87441062927246,
				-3.5480246543884277
			]
		},
		{
			"mesh":2,
			"name":"SO_400",
			"rotation":[
				0,
				-1,
				0,
				7.549789415861596e-08
			],
			"scale":[
				0.026342764496803284,
				0.026342764496803284,
				0.026342764496803284
			],
			"translation":[
				0.002680245554074645,
				18.748247146606445,
				-2.7357656955718994
			]
		},
		{
			"mesh":3,
			"name":"SO_178",
			"rotation":[
				-0.7071068286895752,
				-0.7071068286895752,
				0,
				3.090862321641907e-08
			],
			"scale":[
				0.8132453560829163,
				0.8132453560829163,
				0.813245415687561
			],
			"translation":[
				0.001534205861389637,
				16.962799072265625,
				-0.8845269680023193
			]
		},
		{
			"mesh":4,
			"name":"SO_06_Neck",
			"rotation":[
				0,
				-1,
				0,
				7.549790126404332e-08
			],
			"scale":[
				0.03307003155350685,
				0.03307003155350685,
				0.03307003155350685
			],
			"translation":[
				-5.1821465604007244e-05,
				8.999685287475586,
				-1.933316707611084
			]
		},
		{
			"mesh":5,
			"name":"Plane.002",
			"rotation":[
				0.46390366554260254,
				0.5336605310440063,
				-0.4639039933681488,
				0.5336601138114929
			],
			"scale":[
				0.5652807950973511,
				0.5652807950973511,
				0.5652807950973511
			],
			"translation":[
				2.832118034362793,
				1.1033860445022583,
				-1.429862141609192
			]
		},
		{
			"mesh":6,
			"name":"Plane.001",
			"rotation":[
				0.4639037847518921,
				-0.5336602330207825,
				0.4639037549495697,
				0.5336604714393616
			],
			"scale":[
				0.5652807950973511,
				0.5652807950973511,
				0.5652807950973511
			],
			"translation":[
				-2.8285276889801025,
				1.103424310684204,
				-1.4319580793380737
			]
		},
		{
			"mesh":7,
			"name":"cable_47.002",
			"rotation":[
				0,
				-0.7071068286895752,
				-0.7071068286895752,
				5.338509012631221e-08
			],
			"scale":[
				0.010000000707805157,
				0.009999998845160007,
				0.009999998845160007
			],
			"translation":[
				3.391083240509033,
				1.3882882595062256,
				-1.813733458518982
			]
		},
		{
			"mesh":8,
			"name":"cable_47.001",
			"rotation":[
				-0.70710688829422,
				0,
				0,
				0.7071066498756409
			],
			"scale":[
				0.009999997913837433,
				0.009999998845160007,
				0.009999998845160007
			],
			"translation":[
				-3.37103533744812,
				1.474213719367981,
				-1.444774866104126
			]
		}
	],
	"materials":[
		{
			"doubleSided":true,
			"extensions":{
				"KHR_materials_specular":{
					"specularColorFactor":[
						1.4909090995788574,
						1.4909090995788574,
						1.4909090995788574
					]
				},
				"KHR_materials_ior":{
					"ior":1.4500000476837158
				}
			},
			"name":"Metal Paint",
			"pbrMetallicRoughness":{
				"baseColorFactor":[
					0.3123611509799957,
					1,
					0.3049257695674896,
					1
				],
				"metallicFactor":0.04545457661151886,
				"roughnessFactor":0.07727272808551788
			}
		},
		{
			"doubleSided":true,
			"name":"Transparent Glass"
		},
		{
			"doubleSided":true,
			"extensions":{
				"KHR_materials_specular":{
					"specularColorFactor":[
						1.4909090995788574,
						1.4909090995788574,
						1.4909090995788574
					]
				},
				"KHR_materials_ior":{
					"ior":1.4500000476837158
				}
			},
			"name":"Metal Paint 03.002",
			"pbrMetallicRoughness":{
				"baseColorFactor":[
					0.7336106896400452,
					0.7912935018539429,
					0.8688879609107971,
					1
				],
				"metallicFactor":0.04545457661151886,
				"roughnessFactor":0.07727272808551788
			}
		},
		{
			"doubleSided":true,
			"extensions":{
				"KHR_materials_specular":{
					"specularColorFactor":[
						1.4909090995788574,
						1.4909090995788574,
						1.4909090995788574
					]
				},
				"KHR_materials_ior":{
					"ior":1.4500000476837158
				}
			},
			"name":"Metal Paint 04",
			"pbrMetallicRoughness":{
				"baseColorFactor":[
					0.012286404147744179,
					0.014443851076066494,
					0.0137020880356431,
					1
				],
				"metallicFactor":0.04545457661151886,
				"roughnessFactor":0.07727272808551788
			}
		},
		{
			"doubleSided":true,
			"extensions":{
				"KHR_materials_specular":{
					"specularColorFactor":[
						1.4909090995788574,
						1.4909090995788574,
						1.4909090995788574
					]
				},
				"KHR_materials_ior":{
					"ior":1.4500000476837158
				}
			},
			"name":"Metal Paint 02",
			"pbrMetallicRoughness":{
				"baseColorFactor":[
					0.5447137355804443,
					0.41260403394699097,
					1,
					1
				],
				"metallicFactor":0.04545457661151886,
				"roughnessFactor":0.07727272808551788
			}
		},
		{
			"doubleSided":true,
			"extensions":{
				"KHR_materials_specular":{
					"specularFactor":0.800000011920929
				},
				"KHR_materials_ior":{
					"ior":1.4500000476837158
				}
			},
			"name":"black_cable",
			"pbrMetallicRoughness":{
				"baseColorFactor":[
					0.1725490242242813,
					0.1725490242242813,
					0.1725490242242813,
					1
				],
				"metallicFactor":0,
				"roughnessFactor":0.5527864098548889
			}
		},
		{
			"doubleSided":true,
			"extensions":{
				"KHR_materials_specular":{
					"specularFactor":0.800000011920929
				},
				"KHR_materials_ior":{
					"ior":1.4500000476837158
				}
			},
			"name":"blue_cable",
			"pbrMetallicRoughness":{
				"baseColorFactor":[
					0.26274511218070984,
					0.46666669845581055,
					0.658823549747467,
					1
				],
				"metallicFactor":0,
				"roughnessFactor":0.5527864098548889
			}
		}
	],
	"meshes":[
		{
			"name":"Mesh.065",
			"primitives":[
				{
					"attributes":{
						"POSITION":0,
						"NORMAL":1,
						"TEXCOORD_0":2
					},
					"indices":3,
					"material":0
				}
			]
		},
		{
			"name":"Sphere",
			"primitives":[
				{
					"attributes":{
						"POSITION":4,
						"NORMAL":5,
						"TEXCOORD_0":6
					},
					"indices":7,
					"material":1
				}
			]
		},
		{
			"name":"Mesh.124",
			"primitives":[
				{
					"attributes":{
						"POSITION":8,
						"NORMAL":9,
						"TEXCOORD_0":10
					},
					"indices":11,
					"material":2
				}
			]
		},
		{
			"name":"Mesh.177",
			"primitives":[
				{
					"attributes":{
						"POSITION":12,
						"NORMAL":13,
						"TEXCOORD_0":14,
						"TEXCOORD_1":15
					},
					"indices":16,
					"material":2
				},
				{
					"attributes":{
						"POSITION":17,
						"NORMAL":18,
						"TEXCOORD_0":19,
						"TEXCOORD_1":20
					},
					"indices":21,
					"material":3
				}
			]
		},
		{
			"name":"Mesh.067",
			"primitives":[
				{
					"attributes":{
						"POSITION":22,
						"NORMAL":23,
						"TEXCOORD_0":24
					},
					"indices":25,
					"material":4
				}
			]
		},
		{
			"name":"Plane.002",
			"primitives":[
				{
					"attributes":{
						"POSITION":26,
						"NORMAL":27,
						"TEXCOORD_0":28
					},
					"indices":29,
					"material":0
				}
			]
		},
		{
			"name":"Plane.001",
			"primitives":[
				{
					"attributes":{
						"POSITION":30,
						"NORMAL":31,
						"TEXCOORD_0":32
					},
					"indices":33,
					"material":0
				}
			]
		},
		{
			"name":"Mesh.093",
			"primitives":[
				{
					"attributes":{
						"POSITION":34,
						"NORMAL":35,
						"TEXCOORD_0":36
					},
					"indices":37,
					"material":3
				},
				{
					"attributes":{
						"POSITION":38,
						"NORMAL":39,
						"TEXCOORD_0":40
					},
					"indices":41,
					"material":5
				},
				{
					"attributes":{
						"POSITION":42,
						"NORMAL":43,
						"TEXCOORD_0":44
					},
					"indices":45,
					"material":6
				}
			]
		},
		{
			"name":"Mesh.092",
			"primitives":[
				{
					"attributes":{
						"POSITION":46,
						"NORMAL":47,
						"TEXCOORD_0":48
					},
					"indices":49,
					"material":3
				},
				{
					"attributes":{
						"POSITION":50,
						"NORMAL":51,
						"TEXCOORD_0":52
					},
					"indices":53,
					"material":5
				},
				{
					"attributes":{
						"POSITION":54,
						"NORMAL":55,
						"TEXCOORD_0":56
					},
					"indices":57,
					"material":6
				}
			]
		}
	],
	"accessors":[
		{
			"bufferView":0,
			"componentType":5126,
			"count":23740,
			"max":[
				190.85475158691406,
				26.18804168701172,
				335.63128662109375
			],
			"min":[
				-190.8545684814453,
				-50.58454895019531,
				-145.38131713867188
			],
			"type":"VEC3"
		},
		{
			"bufferView":1,
			"componentType":5126,
			"count":23740,
			"type":"VEC3"
		},
		{
			"bufferView":2,
			"componentType":5126,
			"count":23740,
			"type":"VEC2"
		},
		{
			"bufferView":3,
			"componentType":5123,
			"count":69687,
			"type":"SCALAR"
		},
		{
			"bufferView":4,
			"componentType":5126,
			"count":964,
			"max":[
				3.402062177658081,
				1.0010099411010742,
				0.9962747097015381
			],
			"min":[
				-3.404017210006714,
				-0.998989999294281,
				-1.0035068988800049
			],
			"type":"VEC3"
		},
		{
			"bufferView":5,
			"componentType":5126,
			"count":964,
			"type":"VEC3"
		},
		{
			"bufferView":6,
			"componentType":5126,
			"count":964,
			"type":"VEC2"
		},
		{
			"bufferView":7,
			"componentType":5123,
			"count":5184,
			"type":"SCALAR"
		},
		{
			"bufferView":8,
			"componentType":5126,
			"count":4649,
			"max":[
				302.603515625,
				19.300199508666992,
				91.26860046386719
			],
			"min":[
				-302.50579833984375,
				-29.559917449951172,
				-62.04732131958008
			],
			"type":"VEC3"
		},
		{
			"bufferView":9,
			"componentType":5126,
			"count":4649,
			"type":"VEC3"
		},
		{
			"bufferView":10,
			"componentType":5126,
			"count":4649,
			"type":"VEC2"
		},
		{
			"bufferView":11,
			"componentType":5123,
			"count":14514,
			"type":"SCALAR"
		},
		{
			"bufferView":12,
			"componentType":5126,
			"count":19936,
			"max":[
				6.361765384674072,
				10.708558082580566,
				4.174354076385498
			],
			"min":[
				-6.623046875,
				-10.705735206604004,
				-7.3697662353515625
			],
			"type":"VEC3"
		},
		{
			"bufferView":13,
			"componentType":5126,
			"count":19936,
			"type":"VEC3"
		},
		{
			"bufferView":14,
			"componentType":5126,
			"count":19936,
			"type":"VEC2"
		},
		{
			"bufferView":15,
			"componentType":5126,
			"count":19936,
			"type":"VEC2"
		},
		{
			"bufferView":16,
			"componentType":5123,
			"count":58857,
			"type":"SCALAR"
		},
		{
			"bufferView":17,
			"componentType":5126,
			"count":4188,
			"max":[
				4.853875637054443,
				10.672965049743652,
				4.010226249694824
			],
			"min":[
				-6.783802032470703,
				-10.670143127441406,
				-4.174166679382324
			],
			"type":"VEC3"
		},
		{
			"bufferView":18,
			"componentType":5126,
			"count":4188,
			"type":"VEC3"
		},
		{
			"bufferView":19,
			"componentType":5126,
			"count":4188,
			"type":"VEC2"
		},
		{
			"bufferView":20,
			"componentType":5126,
			"count":4188,
			"type":"VEC2"
		},
		{
			"bufferView":21,
			"componentType":5123,
			"count":12156,
			"type":"SCALAR"
		},
		{
			"bufferView":22,
			"componentType":5126,
			"count":24878,
			"max":[
				248.3511199951172,
				492.381591796875,
				93.7583999633789
			],
			"min":[
				-248.5164337158203,
				-293.3987731933594,
				-102.27400207519531
			],
			"type":"VEC3"
		},
		{
			"bufferView":23,
			"componentType":5126,
			"count":24878,
			"type":"VEC3"
		},
		{
			"bufferView":24,
			"componentType":5126,
			"count":24878,
			"type":"VEC2"
		},
		{
			"bufferView":25,
			"componentType":5123,
			"count":76644,
			"type":"SCALAR"
		},
		{
			"bufferView":26,
			"componentType":5126,
			"count":318,
			"max":[
				0.9877710938453674,
				0.003500128397718072,
				0.9790821671485901
			],
			"min":[
				-1.0122296810150146,
				-0.10671255737543106,
				-1.0339856147766113
			],
			"type":"VEC3"
		},
		{
			"bufferView":27,
			"componentType":5126,
			"count":318,
			"type":"VEC3"
		},
		{
			"bufferView":28,
			"componentType":5126,
			"count":318,
			"type":"VEC2"
		},
		{
			"bufferView":29,
			"componentType":5123,
			"count":1500,
			"type":"SCALAR"
		},
		{
			"bufferView":30,
			"componentType":5126,
			"count":302,
			"max":[
				0.9840624928474426,
				0.0003845723404083401,
				0.9787127375602722
			],
			"min":[
				-1.0159382820129395,
				-0.02554650790989399,
				-1.0212880373001099
			],
			"type":"VEC3"
		},
		{
			"bufferView":31,
			"componentType":5126,
			"count":302,
			"type":"VEC3"
		},
		{
			"bufferView":32,
			"componentType":5126,
			"count":302,
			"type":"VEC2"
		},
		{
			"bufferView":33,
			"componentType":5123,
			"count":1500,
			"type":"SCALAR"
		},
		{
			"bufferView":34,
			"componentType":5126,
			"count":15047,
			"max":[
				36.416561126708984,
				81.58080291748047,
				49.47506332397461
			],
			"min":[
				-24.329639434814453,
				-6.51637601852417,
				-55.851600646972656
			],
			"type":"VEC3"
		},
		{
			"bufferView":35,
			"componentType":5126,
			"count":15047,
			"type":"VEC3"
		},
		{
			"bufferView":36,
			"componentType":5126,
			"count":15047,
			"type":"VEC2"
		},
		{
			"bufferView":37,
			"componentType":5123,
			"count":37665,
			"type":"SCALAR"
		},
		{
			"bufferView":38,
			"componentType":5126,
			"count":3901,
			"max":[
				28.483301162719727,
				81.54270935058594,
				54.32822036743164
			],
			"min":[
				-24.871034622192383,
				-5.432066917419434,
				-47.824180603027344
			],
			"type":"VEC3"
		},
		{
			"bufferView":39,
			"componentType":5126,
			"count":3901,
			"type":"VEC3"
		},
		{
			"bufferView":40,
			"componentType":5126,
			"count":3901,
			"type":"VEC2"
		},
		{
			"bufferView":41,
			"componentType":5123,
			"count":11658,
			"type":"SCALAR"
		},
		{
			"bufferView":42,
			"componentType":5126,
			"count":9918,
			"max":[
				27.664247512817383,
				81.52142333984375,
				52.69074630737305
			],
			"min":[
				-23.16588592529297,
				-4.793067455291748,
				-47.803321838378906
			],
			"type":"VEC3"
		},
		{
			"bufferView":43,
			"componentType":5126,
			"count":9918,
			"type":"VEC3"
		},
		{
			"bufferView":44,
			"componentType":5126,
			"count":9918,
			"type":"VEC2"
		},
		{
			"bufferView":45,
			"componentType":5123,
			"count":39495,
			"type":"SCALAR"
		},
		{
			"bufferView":46,
			"componentType":5126,
			"count":15018,
			"max":[
				35.196319580078125,
				43.092735290527344,
				40.88251495361328
			],
			"min":[
				-25.549880981445312,
				-45.00444412231445,
				-64.44415283203125
			],
			"type":"VEC3"
		},
		{
			"bufferView":47,
			"componentType":5126,
			"count":15018,
			"type":"VEC3"
		},
		{
			"bufferView":48,
			"componentType":5126,
			"count":15018,
			"type":"VEC2"
		},
		{
			"bufferView":49,
			"componentType":5123,
			"count":37665,
			"type":"SCALAR"
		},
		{
			"bufferView":50,
			"componentType":5126,
			"count":3908,
			"max":[
				27.263059616088867,
				43.05464172363281,
				45.73567199707031
			],
			"min":[
				-26.091276168823242,
				-43.920135498046875,
				-56.41672897338867
			],
			"type":"VEC3"
		},
		{
			"bufferView":51,
			"componentType":5126,
			"count":3908,
			"type":"VEC3"
		},
		{
			"bufferView":52,
			"componentType":5126,
			"count":3908,
			"type":"VEC2"
		},
		{
			"bufferView":53,
			"componentType":5123,
			"count":11658,
			"type":"SCALAR"
		},
		{
			"bufferView":54,
			"componentType":5126,
			"count":9939,
			"max":[
				26.444005966186523,
				43.033355712890625,
				44.09819793701172
			],
			"min":[
				-24.386127471923828,
				-43.28113555908203,
				-56.395870208740234
			],
			"type":"VEC3"
		},
		{
			"bufferView":55,
			"componentType":5126,
			"count":9939,
			"type":"VEC3"
		},
		{
			"bufferView":56,
			"componentType":5126,
			"count":9939,
			"type":"VEC2"
		},
		{
			"bufferView":57,
			"componentType":5123,
			"count":39495,
			"type":"SCALAR"
		}
	],
	"bufferViews":[
		{
			"buffer":0,
			"byteLength":284880,
			"byteOffset":0,
			"target":34962
		},
		{
			"buffer":0,
			"byteLength":284880,
			"byteOffset":284880,
			"target":34962
		},
		{
			"buffer":0,
			"byteLength":189920,
			"byteOffset":569760,
			"target":34962
		},
		{
			"buffer":0,
			"byteLength":139374,
			"byteOffset":759680,
			"target":34963
		},
		{
			"buffer":0,
			"byteLength":11568,
			"byteOffset":899056,
			"target":34962
		},
		{
			"buffer":0,
			"byteLength":11568,
			"byteOffset":910624,
			"target":34962
		},
		{
			"buffer":0,
			"byteLength":7712,
			"byteOffset":922192,
			"target":34962
		},
		{
			"buffer":0,
			"byteLength":10368,
			"byteOffset":929904,
			"target":34963
		},
		{
			"buffer":0,
			"byteLength":55788,
			"byteOffset":940272,
			"target":34962
		},
		{
			"buffer":0,
			"byteLength":55788,
			"byteOffset":996060,
			"target":34962
		},
		{
			"buffer":0,
			"byteLength":37192,
			"byteOffset":1051848,
			"target":34962
		},
		{
			"buffer":0,
			"byteLength":29028,
			"byteOffset":1089040,
			"target":34963
		},
		{
			"buffer":0,
			"byteLength":239232,
			"byteOffset":1118068,
			"target":34962
		},
		{
			"buffer":0,
			"byteLength":239232,
			"byteOffset":1357300,
			"target":34962
		},
		{
			"buffer":0,
			"byteLength":159488,
			"byteOffset":1596532,
			"target":34962
		},
		{
			"buffer":0,
			"byteLength":159488,
			"byteOffset":1756020,
			"target":34962
		},
		{
			"buffer":0,
			"byteLength":117714,
			"byteOffset":1915508,
			"target":34963
		},
		{
			"buffer":0,
			"byteLength":50256,
			"byteOffset":2033224,
			"target":34962
		},
		{
			"buffer":0,
			"byteLength":50256,
			"byteOffset":2083480,
			"target":34962
		},
		{
			"buffer":0,
			"byteLength":33504,
			"byteOffset":2133736,
			"target":34962
		},
		{
			"buffer":0,
			"byteLength":33504,
			"byteOffset":2167240,
			"target":34962
		},
		{
			"buffer":0,
			"byteLength":24312,
			"byteOffset":2200744,
			"target":34963
		},
		{
			"buffer":0,
			"byteLength":298536,
			"byteOffset":2225056,
			"target":34962
		},
		{
			"buffer":0,
			"byteLength":298536,
			"byteOffset":2523592,
			"target":34962
		},
		{
			"buffer":0,
			"byteLength":199024,
			"byteOffset":2822128,
			"target":34962
		},
		{
			"buffer":0,
			"byteLength":153288,
			"byteOffset":3021152,
			"target":34963
		},
		{
			"buffer":0,
			"byteLength":3816,
			"byteOffset":3174440,
			"target":34962
		},
		{
			"buffer":0,
			"byteLength":3816,
			"byteOffset":3178256,
			"target":34962
		},
		{
			"buffer":0,
			"byteLength":2544,
			"byteOffset":3182072,
			"target":34962
		},
		{
			"buffer":0,
			"byteLength":3000,
			"byteOffset":3184616,
			"target":34963
		},
		{
			"buffer":0,
			"byteLength":3624,
			"byteOffset":3187616,
			"target":34962
		},
		{
			"buffer":0,
			"byteLength":3624,
			"byteOffset":3191240,
			"target":34962
		},
		{
			"buffer":0,
			"byteLength":2416,
			"byteOffset":3194864,
			"target":34962
		},
		{
			"buffer":0,
			"byteLength":3000,
			"byteOffset":3197280,
			"target":34963
		},
		{
			"buffer":0,
			"byteLength":180564,
			"byteOffset":3200280,
			"target":34962
		},
		{
			"buffer":0,
			"byteLength":180564,
			"byteOffset":3380844,
			"target":34962
		},
		{
			"buffer":0,
			"byteLength":120376,
			"byteOffset":3561408,
			"target":34962
		},
		{
			"buffer":0,
			"byteLength":75330,
			"byteOffset":3681784,
			"target":34963
		},
		{
			"buffer":0,
			"byteLength":46812,
			"byteOffset":3757116,
			"target":34962
		},
		{
			"buffer":0,
			"byteLength":46812,
			"byteOffset":3803928,
			"target":34962
		},
		{
			"buffer":0,
			"byteLength":31208,
			"byteOffset":3850740,
			"target":34962
		},
		{
			"buffer":0,
			"byteLength":23316,
			"byteOffset":3881948,
			"target":34963
		},
		{
			"buffer":0,
			"byteLength":119016,
			"byteOffset":3905264,
			"target":34962
		},
		{
			"buffer":0,
			"byteLength":119016,
			"byteOffset":4024280,
			"target":34962
		},
		{
			"buffer":0,
			"byteLength":79344,
			"byteOffset":4143296,
			"target":34962
		},
		{
			"buffer":0,
			"byteLength":78990,
			"byteOffset":4222640,
			"target":34963
		},
		{
			"buffer":0,
			"byteLength":180216,
			"byteOffset":4301632,
			"target":34962
		},
		{
			"buffer":0,
			"byteLength":180216,
			"byteOffset":4481848,
			"target":34962
		},
		{
			"buffer":0,
			"byteLength":120144,
			"byteOffset":4662064,
			"target":34962
		},
		{
			"buffer":0,
			"byteLength":75330,
			"byteOffset":4782208,
			"target":34963
		},
		{
			"buffer":0,
			"byteLength":46896,
			"byteOffset":4857540,
			"target":34962
		},
		{
			"buffer":0,
			"byteLength":46896,
			"byteOffset":4904436,
			"target":34962
		},
		{
			"buffer":0,
			"byteLength":31264,
			"byteOffset":4951332,
			"target":34962
		},
		{
			"buffer":0,
			"byteLength":23316,
			"byteOffset":4982596,
			"target":34963
		},
		{
			"buffer":0,
			"byteLength":119268,
			"byteOffset":5005912,
			"target":34962
		},
		{
			"buffer":0,
			"byteLength":119268,
			"byteOffset":5125180,
			"target":34962
		},
		{
			"buffer":0,
			"byteLength":79512,
			"byteOffset":5244448,
			"target":34962
		},
		{
			"buffer":0,
			"byteLength":78990,
			"byteOffset":5323960,
			"target":34963
		}
	],
	"buffers":[
		{
			"byteLength":5402952,
			"uri":"enemy.bin"
		}
	]
}
