{
	"asset":{
		"generator":"Khronos glTF Blender I/O v4.5.48",
		"version":"2.0"
	},
	"scene":0,
	"scenes":[
		{
			"name":"Scene",
			"nodes":[
				0
			]
		}
	],
	"nodes":[
		{
			"mesh":0,
			"name":"Level_01",
			"scale":[
				0.009999999776482582,
				0.009999999776482582,
				0.009999999776482582
			],
			"translation":[
				0,
				0,
				416.8465881347656
			]
		}
	],
	"materials":[
		{
			"doubleSided":true,
			"name":"Material.002",
			"pbrMetallicRoughness":{
				"baseColorFactor":[
					0.800000011920929,
					0.800000011920929,
					0.800000011920929,
					1
				],
				"metallicFactor":0,
				"roughnessFactor":0.5
			}
		},
		{
			"doubleSided":true,
			"name":"Red",
			"pbrMetallicRoughness":{
				"baseColorFactor":[
					0.6307539939880371,
					0,
					0,
					1
				],
				"metallicFactor":0,
				"roughnessFactor":0.5
			}
		},
		{
			"doubleSided":true,
			"name":"Glass_test"
		}
	],
	"meshes":[
		{
			"name":"Mesh.421",
			"primitives":[
				{
					"attributes":{
						"POSITION":0,
						"NORMAL":1,
						"TEXCOORD_0":2,
						"TEXCOORD_1":3
					},
					"indices":4,
					"material":0
				},
				{
					"attributes":{
						"POSITION":5,
						"NORMAL":6,
						"TEXCOORD_0":7,
						"TEXCOORD_1":8
					},
					"indices":9,
					"material":0
				},
				{
					"attributes":{
						"POSITION":10,
						"NORMAL":11,
						"TEXCOORD_0":12,
						"TEXCOORD_1":13
					},
					"indices":14,
					"material":1
				},
				{
					"attributes":{
						"POSITION":15,
						"NORMAL":16,
						"TEXCOORD_0":17,
						"TEXCOORD_1":18
					},
					"indices":19,
					"material":2
				}
			]
		}
	],
	"accessors":[
		{
			"bufferView":0,
			"componentType":5126,
			"count":7863,
			"max":[
				7681.080078125,
				2692.380126953125,
				47166.73828125
			],
			"min":[
				-7681.080078125,
				-136.44747924804688,
				-46153.4375
			],
			"type":"VEC3"
		},
		{
			"bufferView":1,
			"componentType":5126,
			"count":7863,
			"type":"VEC3"
		},
		{
			"bufferView":2,
			"componentType":5126,
			"count":7863,
			"type":"VEC2"
		},
		{
			"bufferView":3,
			"componentType":5126,
			"count":7863,
			"type":"VEC2"
		},
		{
			"bufferView":4,
			"componentType":5123,
			"count":15456,
			"type":"SCALAR"
		},
		{
			"bufferView":5,
			"componentType":5126,
			"count":4103,
			"max":[
				274.0304870605469,
				1001.2247924804688,
				46165.34375
			],
			"min":[
				-496.712890625,
				-20.530723571777344,
				-37150.4765625
			],
			"type":"VEC3"
		},
		{
			"bufferView":6,
			"componentType":5126,
			"count":4103,
			"type":"VEC3"
		},
		{
			"bufferView":7,
			"componentType":5126,
			"count":4103,
			"type":"VEC2"
		},
		{
			"bufferView":8,
			"componentType":5126,
			"count":4103,
			"type":"VEC2"
		},
		{
			"bufferView":9,
			"componentType":5123,
			"count":9576,
			"type":"SCALAR"
		},
		{
			"bufferView":10,
			"componentType":5126,
			"count":1895,
			"max":[
				275.513427734375,
				2692.3798828125,
				46165.3203125
			],
			"min":[
				-497.1937255859375,
				-64.16944122314453,
				-40300.5546875
			],
			"type":"VEC3"
		},
		{
			"bufferView":11,
			"componentType":5126,
			"count":1895,
			"type":"VEC3"
		},
		{
			"bufferView":12,
			"componentType":5126,
			"count":1895,
			"type":"VEC2"
		},
		{
			"bufferView":13,
			"componentType":5126,
			"count":1895,
			"type":"VEC2"
		},
		{
			"bufferView":14,
			"componentType":5123,
			"count":3936,
			"type":"SCALAR"
		},
		{
			"bufferView":15,
			"componentType":5126,
			"count":1348,
			"max":[
				73.9180679321289,
				2085.440185546875,
				18717.7890625
			],
			"min":[
				-397.00299072265625,
				-105.51422119140625,
				-41892.5625
			],
			"type":"VEC3"
		},
		{
			"bufferView":16,
			"componentType":5126,
			"count":1348,
			"type":"VEC3"
		},
		{
			"bufferView":17,
			"componentType":5126,
			"count":1348,
			"type":"VEC2"
		},
		{
			"bufferView":18,
			"componentType":5126,
			"count":1348,
			"type":"VEC2"
		},
		{
			"bufferView":19,
			"componentType":5123,
			"count":2112,
			"type":"SCALAR"
		}
	],
	"bufferViews":[
		{
			"buffer":0,
			"byteLength":94356,
			"byteOffset":0,
			"target":34962
		},
		{
			"buffer":0,
			"byteLength":94356,
			"byteOffset":94356,
			"target":34962
		},
		{
			"buffer":0,
			"byteLength":62904,
			"byteOffset":188712,
			"target":34962
		},
		{
			"buffer":0,
			"byteLength":62904,
			"byteOffset":251616,
			"target":34962
		},
		{
			"buffer":0,
			"byteLength":30912,
			"byteOffset":314520,
			"target":34963
		},
		{
			"buffer":0,
			"byteLength":49236,
			"byteOffset":345432,
			"target":34962
		},
		{
			"buffer":0,
			"byteLength":49236,
			"byteOffset":394668,
			"target":34962
		},
		{
			"buffer":0,
			"byteLength":32824,
			"byteOffset":443904,
			"target":34962
		},
		{
			"buffer":0,
			"byteLength":32824,
			"byteOffset":476728,
			"target":34962
		},
		{
			"buffer":0,
			"byteLength":19152,
			"byteOffset":509552,
			"target":34963
		},
		{
			"buffer":0,
			"byteLength":22740,
			"byteOffset":528704,
			"target":34962
		},
		{
			"buffer":0,
			"byteLength":22740,
			"byteOffset":551444,
			"target":34962
		},
		{
			"buffer":0,
			"byteLength":15160,
			"byteOffset":574184,
			"target":34962
		},
		{
			"buffer":0,
			"byteLength":15160,
			"byteOffset":589344,
			"target":34962
		},
		{
			"buffer":0,
			"byteLength":7872,
			"byteOffset":604504,
			"target":34963
		},
		{
			"buffer":0,
			"byteLength":16176,
			"byteOffset":612376,
			"target":34962
		},
		{
			"buffer":0,
			"byteLength":16176,
			"byteOffset":628552,
			"target":34962
		},
		{
			"buffer":0,
			"byteLength":10784,
			"byteOffset":644728,
			"target":34962
		},
		{
			"buffer":0,
			"byteLength":10784,
			"byteOffset":655512,
			"target":34962
		},
		{
			"buffer":0,
			"byteLength":4224,
			"byteOffset":666296,
			"target":34963
		}
	],
	"buffers":[
		{
			"byteLength":670520,
			"uri":"level_1.bin"
		}
	]
}
