{
	"asset":{
		"generator":"Khronos glTF Blender I/O v4.5.47",
		"version":"2.0"
	},
	"scene":0,
	"scenes":[
		{
			"name":"Scene",
			"nodes":[
				0
			]
		}
	],
	"nodes":[
		{
			"mesh":0,
			"name":"airduct_01",
			"rotation":[
				-0.7071068286895752,
				0,
				0,
				0.7071068286895752
			],
			"translation":[
				0,
				0.6617948412895203,
				0
			]
		}
	],
	"meshes":[
		{
			"name":"Cube.003",
			"primitives":[
				{
					"attributes":{
						"POSITION":0,
						"NORMAL":1,
						"TEXCOORD_0":2
					},
					"indices":3
				}
			]
		}
	],
	"accessors":[
		{
			"bufferView":0,
			"componentType":5126,
			"count":9614,
			"max":[
				0.33529895544052124,
				1.5274704694747925,
				0.594511866569519
			],
			"min":[
				-0.3352988660335541,
				-1.5274699926376343,
				-0.6368891596794128
			],
			"type":"VEC3"
		},
		{
			"bufferView":1,
			"componentType":5126,
			"count":9614,
			"type":"VEC3"
		},
		{
			"bufferView":2,
			"componentType":5126,
			"count":9614,
			"type":"VEC2"
		},
		{
			"bufferView":3,
			"componentType":5123,
			"count":25506,
			"type":"SCALAR"
		}
	],
	"bufferViews":[
		{
			"buffer":0,
			"byteLength":115368,
			"byteOffset":0,
			"target":34962
		},
		{
			"buffer":0,
			"byteLength":115368,
			"byteOffset":115368,
			"target":34962
		},
		{
			"buffer":0,
			"byteLength":76912,
			"byteOffset":230736,
			"target":34962
		},
		{
			"buffer":0,
			"byteLength":51012,
			"byteOffset":307648,
			"target":34963
		}
	],
	"buffers":[
		{
			"byteLength":358660,
			"uri":"airduct_01.bin"
		}
	]
}
