{
	"asset":{
		"generator":"Khronos glTF Blender I/O v4.4.55",
		"version":"2.0"
	},
	"scene":0,
	"scenes":[
		{
			"name":"Scene",
			"nodes":[
				23
			]
		}
	],
	"nodes":[
		{
			"name":"f_index.03.R",
			"rotation":[
				0.05672160163521767,
				-0.12639719247817993,
				0.0013565216213464737,
				0.9903557896614075
			],
			"scale":[
				1,
				1.0000001192092896,
				0.9999999403953552
			],
			"translation":[
				6.05359673500061e-09,
				0.021571749821305275,
				8.940696716308594e-08
			]
		},
		{
			"children":[
				0
			],
			"name":"f_index.02.R",
			"rotation":[
				0.24917089939117432,
				0.16544806957244873,
				0.024246321991086006,
				0.9539145231246948
			],
			"scale":[
				1.0000001192092896,
				1.000000238418579,
				1.0000001192092896
			],
			"translation":[
				-2.6542693376541138e-08,
				0.04180307313799858,
				1.3969838619232178e-08
			]
		},
		{
			"children":[
				1
			],
			"name":"f_index.01.R",
			"rotation":[
				0.04616621509194374,
				0.05032382160425186,
				-0.015750596299767494,
				0.9975410103797913
			],
			"scale":[
				1.0000001192092896,
				0.9999999403953552,
				1.0000001192092896
			],
			"translation":[
				4.260800778865814e-08,
				0.0621030330657959,
				4.773028194904327e-09
			]
		},
		{
			"name":"thumb.03.R",
			"rotation":[
				-0.02351328730583191,
				-0.20730522274971008,
				0.037224847823381424,
				0.9772850275039673
			],
			"scale":[
				0.9999999403953552,
				0.9999999403953552,
				1
			],
			"translation":[
				-4.0978193283081055e-08,
				0.031130976974964142,
				7.264316082000732e-08
			]
		},
		{
			"children":[
				3
			],
			"name":"thumb.02.R",
			"rotation":[
				0.19156873226165771,
				0.13948428630828857,
				-0.07138288766145706,
				0.9688911437988281
			],
			"scale":[
				0.9999998807907104,
				0.9999999403953552,
				0.9999999403953552
			],
			"translation":[
				-1.862645149230957e-08,
				0.0387730672955513,
				4.656612873077393e-10
			]
		},
		{
			"children":[
				4
			],
			"name":"thumb.01.R",
			"rotation":[
				-0.18028247356414795,
				-0.6087787747383118,
				-0.22753682732582092,
				0.7383180856704712
			],
			"scale":[
				1,
				1,
				1.0000001192092896
			],
			"translation":[
				0.01384729240089655,
				-0.0012699668295681477,
				0.011865283362567425
			]
		},
		{
			"children":[
				2,
				5
			],
			"name":"palm.01.R",
			"rotation":[
				-0.038126084953546524,
				-0.09849483519792557,
				-0.02129167877137661,
				0.9941790103912354
			],
			"scale":[
				0.9999999403953552,
				0.9999998807907104,
				1
			],
			"translation":[
				0.014491040259599686,
				0.018602998927235603,
				-0.0059175388887524605
			]
		},
		{
			"name":"f_middle.03.R",
			"rotation":[
				0.06638681888580322,
				0.1727047562599182,
				0.005450520198792219,
				0.9827187657356262
			],
			"scale":[
				1,
				1.0000001192092896,
				1
			],
			"translation":[
				5.587935447692871e-08,
				0.027539946138858795,
				-3.91155481338501e-08
			]
		},
		{
			"children":[
				7
			],
			"name":"f_middle.02.R",
			"rotation":[
				0.20048794150352478,
				0.012220381759107113,
				-0.04282397776842117,
				0.9786835312843323
			],
			"scale":[
				0.9999999403953552,
				0.9999999403953552,
				0.9999998807907104
			],
			"translation":[
				-3.026798367500305e-08,
				0.046184614300727844,
				-4.377216100692749e-08
			]
		},
		{
			"children":[
				8
			],
			"name":"f_middle.01.R",
			"rotation":[
				0.10750698298215866,
				0.09331575036048889,
				-0.022528449073433876,
				0.98955899477005
			],
			"scale":[
				1,
				0.9999999403953552,
				1.0000001192092896
			],
			"translation":[
				1.30385160446167e-08,
				0.05810287594795227,
				-3.5390257835388184e-08
			]
		},
		{
			"children":[
				9
			],
			"name":"palm.02.R",
			"rotation":[
				-0.010034550912678242,
				-0.08091067522764206,
				0.04020148143172264,
				0.9958597421646118
			],
			"scale":[
				0.9999998807907104,
				0.9999998211860657,
				0.9999998807907104
			],
			"translation":[
				0.0005564149469137192,
				0.02066165581345558,
				-0.0102115198969841
			]
		},
		{
			"name":"f_ring.03.R",
			"rotation":[
				0.0699257105588913,
				0.08461473882198334,
				0.01181002613157034,
				0.9938869476318359
			],
			"translation":[
				2.0954757928848267e-08,
				0.023304710164666176,
				-2.421438694000244e-08
			]
		},
		{
			"children":[
				11
			],
			"name":"f_ring.02.R",
			"rotation":[
				0.14927919209003448,
				0.06969407200813293,
				-0.007045845966786146,
				0.9863107204437256
			],
			"scale":[
				1,
				0.9999999403953552,
				1
			],
			"translation":[
				1.1641532182693481e-10,
				0.04561132565140724,
				-1.5366822481155396e-08
			]
		},
		{
			"children":[
				12
			],
			"name":"f_ring.01.R",
			"rotation":[
				0.10099374502897263,
				0.12157793343067169,
				-0.02672613598406315,
				0.987068772315979
			],
			"scale":[
				1.0000001192092896,
				1,
				1
			],
			"translation":[
				7.916241884231567e-09,
				0.0531771257519722,
				4.656612873077393e-10
			]
		},
		{
			"children":[
				13
			],
			"name":"palm.03.R",
			"rotation":[
				0.03274030610918999,
				-0.03279348462820053,
				0.10533153265714645,
				0.9933569431304932
			],
			"scale":[
				0.9999999403953552,
				0.9999999403953552,
				0.9999998807907104
			],
			"translation":[
				-0.009613877162337303,
				0.018045254051685333,
				-0.005419016815721989
			]
		},
		{
			"name":"f_pinky.03.R",
			"rotation":[
				0.0576154924929142,
				0.013817491941154003,
				-0.007619666866958141,
				0.9982141852378845
			],
			"scale":[
				0.9999999403953552,
				1,
				0.9999998807907104
			],
			"translation":[
				4.3888576328754425e-08,
				0.018003573641180992,
				-4.7497451305389404e-08
			]
		},
		{
			"children":[
				15
			],
			"name":"f_pinky.02.R",
			"rotation":[
				0.10295751690864563,
				0.04691816493868828,
				-0.037657737731933594,
				0.992864727973938
			],
			"scale":[
				1,
				0.9999998211860657,
				1
			],
			"translation":[
				-7.508788257837296e-09,
				0.03663377836346626,
				-6.495974957942963e-08
			]
		},
		{
			"children":[
				16
			],
			"name":"f_pinky.01.R",
			"rotation":[
				0.08516638725996017,
				0.21059498190879822,
				0.02924640290439129,
				0.9734172224998474
			],
			"scale":[
				0.9999998807907104,
				0.9999999403953552,
				1
			],
			"translation":[
				2.3283064365386963e-08,
				0.05186988040804863,
				4.7963112592697144e-08
			]
		},
		{
			"children":[
				17
			],
			"name":"palm.04.R",
			"rotation":[
				0.06642365455627441,
				-0.018045738339424133,
				0.1570076048374176,
				0.9851958751678467
			],
			"scale":[
				0.9999999403953552,
				0.9999997615814209,
				0.9999998211860657
			],
			"translation":[
				-0.01951691508293152,
				0.013261839747428894,
				0.0016301656141877174
			]
		},
		{
			"children":[
				6,
				10,
				14,
				18
			],
			"name":"hand.R",
			"rotation":[
				0.08114366233348846,
				-0.11092939972877502,
				0.008713888935744762,
				0.9904718399047852
			],
			"scale":[
				0.9999999403953552,
				1,
				0.9999998211860657
			],
			"translation":[
				-7.916241884231567e-09,
				0.23853884637355804,
				-1.7462298274040222e-10
			]
		},
		{
			"children":[
				19
			],
			"name":"forearm.R",
			"rotation":[
				0.03711887449026108,
				-0.1317138820886612,
				-0.260261595249176,
				0.9557915925979614
			],
			"translation":[
				-5.3551048040390015e-09,
				0.2499658465385437,
				-5.50062395632267e-09
			]
		},
		{
			"children":[
				20
			],
			"name":"upper_arm.R",
			"rotation":[
				0.469319224357605,
				-0.12952439486980438,
				0.804726779460907,
				0.3396729528903961
			],
			"scale":[
				1,
				1.0000001192092896,
				1.0000001192092896
			],
			"translation":[
				0.002969623077660799,
				0.021425608545541763,
				0.040660858154296875
			]
		},
		{
			"mesh":0,
			"name":"Arm",
			"skin":0
		},
		{
			"children":[
				22,
				21
			],
			"name":"ArmRig",
			"rotation":[
				-0.10344285517930984,
				-0.8132429122924805,
				-0.46280616521835327,
				0.3372625410556793
			]
		}
	],
	"meshes":[
		{
			"name":"Arm",
			"primitives":[
				{
					"attributes":{
						"POSITION":0,
						"NORMAL":1,
						"TEXCOORD_0":2,
						"COLOR_0":3,
						"JOINTS_0":4,
						"WEIGHTS_0":5
					},
					"indices":6
				}
			]
		}
	],
	"skins":[
		{
			"inverseBindMatrices":7,
			"joints":[
				21,
				20,
				19,
				6,
				2,
				1,
				0,
				5,
				4,
				3,
				10,
				9,
				8,
				7,
				14,
				13,
				12,
				11,
				18,
				17,
				16,
				15
			],
			"name":"ArmRig"
		}
	],
	"accessors":[
		{
			"bufferView":0,
			"componentType":5126,
			"count":3548,
			"max":[
				0.04309038817882538,
				0.12955041229724884,
				0.024844951927661896
			],
			"min":[
				-0.06274803727865219,
				-0.03406675159931183,
				-0.6294145584106445
			],
			"type":"VEC3"
		},
		{
			"bufferView":1,
			"componentType":5126,
			"count":3548,
			"type":"VEC3"
		},
		{
			"bufferView":2,
			"componentType":5126,
			"count":3548,
			"type":"VEC2"
		},
		{
			"bufferView":3,
			"componentType":5123,
			"count":3548,
			"normalized":true,
			"type":"VEC4"
		},
		{
			"bufferView":4,
			"componentType":5121,
			"count":3548,
			"type":"VEC4"
		},
		{
			"bufferView":5,
			"componentType":5126,
			"count":3548,
			"type":"VEC4"
		},
		{
			"bufferView":6,
			"componentType":5123,
			"count":19716,
			"type":"SCALAR"
		},
		{
			"bufferView":7,
			"componentType":5126,
			"count":22,
			"type":"MAT4"
		}
	],
	"bufferViews":[
		{
			"buffer":0,
			"byteLength":42576,
			"byteOffset":0,
			"target":34962
		},
		{
			"buffer":0,
			"byteLength":42576,
			"byteOffset":42576,
			"target":34962
		},
		{
			"buffer":0,
			"byteLength":28384,
			"byteOffset":85152,
			"target":34962
		},
		{
			"buffer":0,
			"byteLength":28384,
			"byteOffset":113536,
			"target":34962
		},
		{
			"buffer":0,
			"byteLength":14192,
			"byteOffset":141920,
			"target":34962
		},
		{
			"buffer":0,
			"byteLength":56768,
			"byteOffset":156112,
			"target":34962
		},
		{
			"buffer":0,
			"byteLength":39432,
			"byteOffset":212880,
			"target":34963
		},
		{
			"buffer":0,
			"byteLength":1408,
			"byteOffset":252312
		}
	],
	"buffers":[
		{
			"byteLength":253720,
			"uri":"arm.bin"
		}
	]
}
