{
	"asset":{
		"generator":"Khronos glTF Blender I/O v4.5.48",
		"version":"2.0"
	},
	"scene":0,
	"scenes":[
		{
			"name":"Scene",
			"nodes":[
				0,
				1,
				2,
				3,
				4,
				5,
				6
			]
		}
	],
	"nodes":[
		{
			"mesh":0,
			"name":"Part1",
			"translation":[
				-0.0037183761596679688,
				-0.009075980633497238,
				-11.24003791809082
			]
		},
		{
			"mesh":1,
			"name":"Part2",
			"translation":[
				4.163690090179443,
				11.849010467529297,
				-67.3437271118164
			]
		},
		{
			"mesh":2,
			"name":"Part3",
			"translation":[
				-1.246000051498413,
				7.520219802856445,
				-126.47395324707031
			]
		},
		{
			"mesh":3,
			"name":"Part4",
			"translation":[
				13.052399635314941,
				3.8529200553894043,
				-118.64800262451172
			]
		},
		{
			"mesh":4,
			"name":"Part5",
			"translation":[
				2.3079993724823,
				14.377533912658691,
				-288.19195556640625
			]
		},
		{
			"mesh":5,
			"name":"Part6",
			"translation":[
				7.352439880371094,
				6.319900035858154,
				-474.3869934082031
			]
		},
		{
			"mesh":6,
			"name":"Warehouse",
			"translation":[
				13.615259170532227,
				2.0029208660125732,
				-111.07689666748047
			]
		}
	],
	"materials":[
		{
			"doubleSided":true,
			"name":"White",
			"pbrMetallicRoughness":{
				"baseColorFactor":[
					0.800000011920929,
					0.800000011920929,
					0.800000011920929,
					1
				],
				"metallicFactor":0,
				"roughnessFactor":0.5
			}
		},
		{
			"doubleSided":true,
			"name":"Red",
			"pbrMetallicRoughness":{
				"baseColorFactor":[
					0.6307539939880371,
					0,
					0,
					1
				],
				"metallicFactor":0.28985506296157837,
				"roughnessFactor":0.5579710006713867
			}
		}
	],
	"meshes":[
		{
			"name":"Part1",
			"primitives":[
				{
					"attributes":{
						"POSITION":0,
						"NORMAL":1,
						"TEXCOORD_0":2,
						"TEXCOORD_1":3
					},
					"indices":4,
					"material":0
				}
			]
		},
		{
			"name":"Part2",
			"primitives":[
				{
					"attributes":{
						"POSITION":5,
						"NORMAL":6,
						"TEXCOORD_0":7,
						"TEXCOORD_1":8
					},
					"indices":9,
					"material":1
				}
			]
		},
		{
			"name":"Part3",
			"primitives":[
				{
					"attributes":{
						"POSITION":10,
						"NORMAL":11,
						"TEXCOORD_0":12,
						"TEXCOORD_1":13
					},
					"indices":14,
					"material":0
				},
				{
					"attributes":{
						"POSITION":15,
						"NORMAL":16,
						"TEXCOORD_0":17,
						"TEXCOORD_1":18
					},
					"indices":19,
					"material":1
				}
			]
		},
		{
			"name":"Part4",
			"primitives":[
				{
					"attributes":{
						"POSITION":20,
						"NORMAL":21,
						"TEXCOORD_0":22,
						"TEXCOORD_1":23
					},
					"indices":24,
					"material":0
				}
			]
		},
		{
			"name":"Part5",
			"primitives":[
				{
					"attributes":{
						"POSITION":25,
						"NORMAL":26,
						"TEXCOORD_0":27
					},
					"indices":28,
					"material":0
				},
				{
					"attributes":{
						"POSITION":29,
						"NORMAL":30,
						"TEXCOORD_0":31
					},
					"indices":32,
					"material":1
				}
			]
		},
		{
			"name":"Part6",
			"primitives":[
				{
					"attributes":{
						"POSITION":33,
						"NORMAL":34,
						"TEXCOORD_0":35
					},
					"indices":36,
					"material":0
				},
				{
					"attributes":{
						"POSITION":37,
						"NORMAL":38,
						"TEXCOORD_0":39
					},
					"indices":40,
					"material":1
				}
			]
		},
		{
			"name":"Warehouse",
			"primitives":[
				{
					"attributes":{
						"POSITION":41,
						"NORMAL":42,
						"TEXCOORD_0":43
					},
					"indices":44,
					"material":0
				}
			]
		}
	],
	"accessors":[
		{
			"bufferView":0,
			"componentType":5126,
			"count":24,
			"max":[
				4.995993614196777,
				0.011559784412384033,
				14.95840835571289
			],
			"min":[
				-4.995993614196777,
				-0.011559784412384033,
				-14.95840835571289
			],
			"type":"VEC3"
		},
		{
			"bufferView":1,
			"componentType":5126,
			"count":24,
			"type":"VEC3"
		},
		{
			"bufferView":2,
			"componentType":5126,
			"count":24,
			"type":"VEC2"
		},
		{
			"bufferView":3,
			"componentType":5126,
			"count":24,
			"type":"VEC2"
		},
		{
			"bufferView":4,
			"componentType":5123,
			"count":36,
			"type":"SCALAR"
		},
		{
			"bufferView":5,
			"componentType":5126,
			"count":96,
			"max":[
				0.40052586793899536,
				4.279295921325684,
				38.50387191772461
			],
			"min":[
				-7.325944900512695,
				-11.676704406738281,
				-4.722208023071289
			],
			"type":"VEC3"
		},
		{
			"bufferView":6,
			"componentType":5126,
			"count":96,
			"type":"VEC3"
		},
		{
			"bufferView":7,
			"componentType":5126,
			"count":96,
			"type":"VEC2"
		},
		{
			"bufferView":8,
			"componentType":5126,
			"count":96,
			"type":"VEC2"
		},
		{
			"bufferView":9,
			"componentType":5123,
			"count":144,
			"type":"SCALAR"
		},
		{
			"bufferView":10,
			"componentType":5126,
			"count":120,
			"max":[
				6.036959648132324,
				7.877079963684082,
				40.91349792480469
			],
			"min":[
				-5.448677062988281,
				-0.5268527269363403,
				-59.35449981689453
			],
			"type":"VEC3"
		},
		{
			"bufferView":11,
			"componentType":5126,
			"count":120,
			"type":"VEC3"
		},
		{
			"bufferView":12,
			"componentType":5126,
			"count":120,
			"type":"VEC2"
		},
		{
			"bufferView":13,
			"componentType":5126,
			"count":120,
			"type":"VEC2"
		},
		{
			"bufferView":14,
			"componentType":5123,
			"count":180,
			"type":"SCALAR"
		},
		{
			"bufferView":15,
			"componentType":5126,
			"count":24,
			"max":[
				-1.037832260131836,
				7.142110347747803,
				28.926042556762695
			],
			"min":[
				-4.831567287445068,
				0.3999338150024414,
				23.751468658447266
			],
			"type":"VEC3"
		},
		{
			"bufferView":16,
			"componentType":5126,
			"count":24,
			"type":"VEC3"
		},
		{
			"bufferView":17,
			"componentType":5126,
			"count":24,
			"type":"VEC2"
		},
		{
			"bufferView":18,
			"componentType":5126,
			"count":24,
			"type":"VEC2"
		},
		{
			"bufferView":19,
			"componentType":5123,
			"count":36,
			"type":"SCALAR"
		},
		{
			"bufferView":20,
			"componentType":5126,
			"count":72,
			"max":[
				6.497493267059326,
				-2.287919044494629,
				54.87850570678711
			],
			"min":[
				-12.072577476501465,
				-3.0879242420196533,
				-75.81441497802734
			],
			"type":"VEC3"
		},
		{
			"bufferView":21,
			"componentType":5126,
			"count":72,
			"type":"VEC3"
		},
		{
			"bufferView":22,
			"componentType":5126,
			"count":72,
			"type":"VEC2"
		},
		{
			"bufferView":23,
			"componentType":5126,
			"count":72,
			"type":"VEC2"
		},
		{
			"bufferView":24,
			"componentType":5123,
			"count":108,
			"type":"SCALAR"
		},
		{
			"bufferView":25,
			"componentType":5126,
			"count":1493,
			"max":[
				9.735101699829102,
				20.618694305419922,
				97.75418853759766
			],
			"min":[
				-13.375834465026855,
				-13.776572227478027,
				-105.8212890625
			],
			"type":"VEC3"
		},
		{
			"bufferView":26,
			"componentType":5126,
			"count":1493,
			"type":"VEC3"
		},
		{
			"bufferView":27,
			"componentType":5126,
			"count":1493,
			"type":"VEC2"
		},
		{
			"bufferView":28,
			"componentType":5123,
			"count":2364,
			"type":"SCALAR"
		},
		{
			"bufferView":29,
			"componentType":5126,
			"count":144,
			"max":[
				4.577591896057129,
				3.432992696762085,
				56.290035247802734
			],
			"min":[
				-3.301701545715332,
				-0.25354471802711487,
				-76.47221374511719
			],
			"type":"VEC3"
		},
		{
			"bufferView":30,
			"componentType":5126,
			"count":144,
			"type":"VEC3"
		},
		{
			"bufferView":31,
			"componentType":5126,
			"count":144,
			"type":"VEC2"
		},
		{
			"bufferView":32,
			"componentType":5123,
			"count":216,
			"type":"SCALAR"
		},
		{
			"bufferView":33,
			"componentType":5126,
			"count":120,
			"max":[
				3.0271384716033936,
				0.524059534072876,
				66.1895980834961
			],
			"min":[
				-15.005261421203613,
				-7.095780849456787,
				-71.61174011230469
			],
			"type":"VEC3"
		},
		{
			"bufferView":34,
			"componentType":5126,
			"count":120,
			"type":"VEC3"
		},
		{
			"bufferView":35,
			"componentType":5126,
			"count":120,
			"type":"VEC2"
		},
		{
			"bufferView":36,
			"componentType":5123,
			"count":180,
			"type":"SCALAR"
		},
		{
			"bufferView":37,
			"componentType":5126,
			"count":168,
			"max":[
				15.374140739440918,
				17.952959060668945,
				51.105613708496094
			],
			"min":[
				-15.374150276184082,
				-5.291415214538574,
				-29.587032318115234
			],
			"type":"VEC3"
		},
		{
			"bufferView":38,
			"componentType":5126,
			"count":168,
			"type":"VEC3"
		},
		{
			"bufferView":39,
			"componentType":5126,
			"count":168,
			"type":"VEC2"
		},
		{
			"bufferView":40,
			"componentType":5123,
			"count":252,
			"type":"SCALAR"
		},
		{
			"bufferView":41,
			"componentType":5126,
			"count":268,
			"max":[
				9.037129402160645,
				11.584118843078613,
				31.07936668395996
			],
			"min":[
				-8.312344551086426,
				-1.4852278232574463,
				-31.05531883239746
			],
			"type":"VEC3"
		},
		{
			"bufferView":42,
			"componentType":5126,
			"count":268,
			"type":"VEC3"
		},
		{
			"bufferView":43,
			"componentType":5126,
			"count":268,
			"type":"VEC2"
		},
		{
			"bufferView":44,
			"componentType":5123,
			"count":651,
			"type":"SCALAR"
		}
	],
	"bufferViews":[
		{
			"buffer":0,
			"byteLength":288,
			"byteOffset":0,
			"target":34962
		},
		{
			"buffer":0,
			"byteLength":288,
			"byteOffset":288,
			"target":34962
		},
		{
			"buffer":0,
			"byteLength":192,
			"byteOffset":576,
			"target":34962
		},
		{
			"buffer":0,
			"byteLength":192,
			"byteOffset":768,
			"target":34962
		},
		{
			"buffer":0,
			"byteLength":72,
			"byteOffset":960,
			"target":34963
		},
		{
			"buffer":0,
			"byteLength":1152,
			"byteOffset":1032,
			"target":34962
		},
		{
			"buffer":0,
			"byteLength":1152,
			"byteOffset":2184,
			"target":34962
		},
		{
			"buffer":0,
			"byteLength":768,
			"byteOffset":3336,
			"target":34962
		},
		{
			"buffer":0,
			"byteLength":768,
			"byteOffset":4104,
			"target":34962
		},
		{
			"buffer":0,
			"byteLength":288,
			"byteOffset":4872,
			"target":34963
		},
		{
			"buffer":0,
			"byteLength":1440,
			"byteOffset":5160,
			"target":34962
		},
		{
			"buffer":0,
			"byteLength":1440,
			"byteOffset":6600,
			"target":34962
		},
		{
			"buffer":0,
			"byteLength":960,
			"byteOffset":8040,
			"target":34962
		},
		{
			"buffer":0,
			"byteLength":960,
			"byteOffset":9000,
			"target":34962
		},
		{
			"buffer":0,
			"byteLength":360,
			"byteOffset":9960,
			"target":34963
		},
		{
			"buffer":0,
			"byteLength":288,
			"byteOffset":10320,
			"target":34962
		},
		{
			"buffer":0,
			"byteLength":288,
			"byteOffset":10608,
			"target":34962
		},
		{
			"buffer":0,
			"byteLength":192,
			"byteOffset":10896,
			"target":34962
		},
		{
			"buffer":0,
			"byteLength":192,
			"byteOffset":11088,
			"target":34962
		},
		{
			"buffer":0,
			"byteLength":72,
			"byteOffset":11280,
			"target":34963
		},
		{
			"buffer":0,
			"byteLength":864,
			"byteOffset":11352,
			"target":34962
		},
		{
			"buffer":0,
			"byteLength":864,
			"byteOffset":12216,
			"target":34962
		},
		{
			"buffer":0,
			"byteLength":576,
			"byteOffset":13080,
			"target":34962
		},
		{
			"buffer":0,
			"byteLength":576,
			"byteOffset":13656,
			"target":34962
		},
		{
			"buffer":0,
			"byteLength":216,
			"byteOffset":14232,
			"target":34963
		},
		{
			"buffer":0,
			"byteLength":17916,
			"byteOffset":14448,
			"target":34962
		},
		{
			"buffer":0,
			"byteLength":17916,
			"byteOffset":32364,
			"target":34962
		},
		{
			"buffer":0,
			"byteLength":11944,
			"byteOffset":50280,
			"target":34962
		},
		{
			"buffer":0,
			"byteLength":4728,
			"byteOffset":62224,
			"target":34963
		},
		{
			"buffer":0,
			"byteLength":1728,
			"byteOffset":66952,
			"target":34962
		},
		{
			"buffer":0,
			"byteLength":1728,
			"byteOffset":68680,
			"target":34962
		},
		{
			"buffer":0,
			"byteLength":1152,
			"byteOffset":70408,
			"target":34962
		},
		{
			"buffer":0,
			"byteLength":432,
			"byteOffset":71560,
			"target":34963
		},
		{
			"buffer":0,
			"byteLength":1440,
			"byteOffset":71992,
			"target":34962
		},
		{
			"buffer":0,
			"byteLength":1440,
			"byteOffset":73432,
			"target":34962
		},
		{
			"buffer":0,
			"byteLength":960,
			"byteOffset":74872,
			"target":34962
		},
		{
			"buffer":0,
			"byteLength":360,
			"byteOffset":75832,
			"target":34963
		},
		{
			"buffer":0,
			"byteLength":2016,
			"byteOffset":76192,
			"target":34962
		},
		{
			"buffer":0,
			"byteLength":2016,
			"byteOffset":78208,
			"target":34962
		},
		{
			"buffer":0,
			"byteLength":1344,
			"byteOffset":80224,
			"target":34962
		},
		{
			"buffer":0,
			"byteLength":504,
			"byteOffset":81568,
			"target":34963
		},
		{
			"buffer":0,
			"byteLength":3216,
			"byteOffset":82072,
			"target":34962
		},
		{
			"buffer":0,
			"byteLength":3216,
			"byteOffset":85288,
			"target":34962
		},
		{
			"buffer":0,
			"byteLength":2144,
			"byteOffset":88504,
			"target":34962
		},
		{
			"buffer":0,
			"byteLength":1302,
			"byteOffset":90648,
			"target":34963
		}
	],
	"buffers":[
		{
			"byteLength":91952,
			"uri":"level_2.bin"
		}
	]
}
