{
	"asset":{
		"generator":"Khronos glTF Blender I/O v4.5.48",
		"version":"2.0"
	},
	"scene":0,
	"scenes":[
		{
			"name":"Scene",
			"nodes":[
				0
			]
		}
	],
	"nodes":[
		{
			"mesh":0,
			"name":"Silenced_Pistol",
			"scale":[
				2.3748326301574707,
				2.3748326301574707,
				2.3748326301574707
			]
		}
	],
	"materials":[
		{
			"doubleSided":true,
			"emissiveFactor":[
				1,
				1,
				1
			],
			"name":"Simple Crystal.001",
			"pbrMetallicRoughness":{
				"baseColorFactor":[
					0,
					0,
					0,
					1
				]
			}
		},
		{
			"doubleSided":true,
			"emissiveFactor":[
				1,
				1,
				1
			],
			"name":"Simple Crystal.002",
			"pbrMetallicRoughness":{
				"baseColorFactor":[
					0,
					0,
					0,
					1
				]
			}
		}
	],
	"meshes":[
		{
			"name":"Untitled.051",
			"primitives":[
				{
					"attributes":{
						"POSITION":0,
						"NORMAL":1,
						"TEXCOORD_0":2
					},
					"indices":3,
					"material":0
				},
				{
					"attributes":{
						"POSITION":4,
						"NORMAL":5,
						"TEXCOORD_0":6
					},
					"indices":7,
					"material":1
				}
			]
		}
	],
	"accessors":[
		{
			"bufferView":0,
			"componentType":5126,
			"count":21258,
			"max":[
				0.006128120236098766,
				0.022749818861484528,
				0.060518618673086166
			],
			"min":[
				-0.0074006724171340466,
				-0.04437816143035889,
				-0.10097216069698334
			],
			"type":"VEC3"
		},
		{
			"bufferView":1,
			"componentType":5126,
			"count":21258,
			"type":"VEC3"
		},
		{
			"bufferView":2,
			"componentType":5126,
			"count":21258,
			"type":"VEC2"
		},
		{
			"bufferView":3,
			"componentType":5123,
			"count":85755,
			"type":"SCALAR"
		},
		{
			"bufferView":4,
			"componentType":5126,
			"count":1877,
			"max":[
				0.005610059481114149,
				0.020314469933509827,
				0.054023049771785736
			],
			"min":[
				-0.005728506483137608,
				0.003703849855810404,
				-0.03453914821147919
			],
			"type":"VEC3"
		},
		{
			"bufferView":5,
			"componentType":5126,
			"count":1877,
			"type":"VEC3"
		},
		{
			"bufferView":6,
			"componentType":5126,
			"count":1877,
			"type":"VEC2"
		},
		{
			"bufferView":7,
			"componentType":5123,
			"count":5247,
			"type":"SCALAR"
		}
	],
	"bufferViews":[
		{
			"buffer":0,
			"byteLength":255096,
			"byteOffset":0,
			"target":34962
		},
		{
			"buffer":0,
			"byteLength":255096,
			"byteOffset":255096,
			"target":34962
		},
		{
			"buffer":0,
			"byteLength":170064,
			"byteOffset":510192,
			"target":34962
		},
		{
			"buffer":0,
			"byteLength":171510,
			"byteOffset":680256,
			"target":34963
		},
		{
			"buffer":0,
			"byteLength":22524,
			"byteOffset":851768,
			"target":34962
		},
		{
			"buffer":0,
			"byteLength":22524,
			"byteOffset":874292,
			"target":34962
		},
		{
			"buffer":0,
			"byteLength":15016,
			"byteOffset":896816,
			"target":34962
		},
		{
			"buffer":0,
			"byteLength":10494,
			"byteOffset":911832,
			"target":34963
		}
	],
	"buffers":[
		{
			"byteLength":922328,
			"uri":"pistol_w_silencer.bin"
		}
	]
}
