{
	"asset":{
		"generator":"Khronos glTF Blender I/O v4.4.55",
		"version":"2.0"
	},
	"scene":0,
	"scenes":[
		{
			"name":"Scene",
			"nodes":[
				0
			]
		}
	],
	"nodes":[
		{
			"mesh":0,
			"name":"Silenced_Pistol"
		}
	],
	"materials":[
		{
			"doubleSided":true,
			"emissiveFactor":[
				1,
				1,
				1
			],
			"name":"GlassWhite",
			"pbrMetallicRoughness":{
				"baseColorFactor":[
					0,
					0,
					0,
					1
				]
			}
		},
		{
			"doubleSided":true,
			"emissiveFactor":[
				1,
				1,
				1
			],
			"name":"GlassRed",
			"pbrMetallicRoughness":{
				"baseColorFactor":[
					0,
					0,
					0,
					1
				]
			}
		}
	],
	"meshes":[
		{
			"name":"Pistol",
			"primitives":[
				{
					"attributes":{
						"POSITION":0,
						"NORMAL":1,
						"TEXCOORD_0":2,
						"COLOR_0":3,
						"COLOR_1":4
					},
					"indices":5,
					"material":0
				},
				{
					"attributes":{
						"POSITION":6,
						"NORMAL":7,
						"TEXCOORD_0":8,
						"COLOR_0":9,
						"COLOR_1":10
					},
					"indices":11,
					"material":1
				}
			]
		}
	],
	"accessors":[
		{
			"bufferView":0,
			"componentType":5126,
			"count":22238,
			"max":[
				0.014553260058164597,
				0.0540270134806633,
				0.1437215954065323
			],
			"min":[
				-0.017575358971953392,
				-0.10539070516824722,
				-0.23979198932647705
			],
			"type":"VEC3"
		},
		{
			"bufferView":1,
			"componentType":5126,
			"count":22238,
			"type":"VEC3"
		},
		{
			"bufferView":2,
			"componentType":5126,
			"count":22238,
			"type":"VEC2"
		},
		{
			"bufferView":3,
			"componentType":5121,
			"count":22238,
			"normalized":true,
			"type":"VEC4"
		},
		{
			"bufferView":4,
			"componentType":5123,
			"count":22238,
			"normalized":true,
			"type":"VEC4"
		},
		{
			"bufferView":5,
			"componentType":5123,
			"count":85755,
			"type":"SCALAR"
		},
		{
			"bufferView":6,
			"componentType":5126,
			"count":1993,
			"max":[
				0.013322952203452587,
				0.04824346676468849,
				0.12829570472240448
			],
			"min":[
				-0.013604244217276573,
				0.008796023204922676,
				-0.08202469348907471
			],
			"type":"VEC3"
		},
		{
			"bufferView":7,
			"componentType":5126,
			"count":1993,
			"type":"VEC3"
		},
		{
			"bufferView":8,
			"componentType":5126,
			"count":1993,
			"type":"VEC2"
		},
		{
			"bufferView":9,
			"componentType":5121,
			"count":1993,
			"normalized":true,
			"type":"VEC4"
		},
		{
			"bufferView":10,
			"componentType":5123,
			"count":1993,
			"normalized":true,
			"type":"VEC4"
		},
		{
			"bufferView":11,
			"componentType":5123,
			"count":5247,
			"type":"SCALAR"
		}
	],
	"bufferViews":[
		{
			"buffer":0,
			"byteLength":266856,
			"byteOffset":0,
			"target":34962
		},
		{
			"buffer":0,
			"byteLength":266856,
			"byteOffset":266856,
			"target":34962
		},
		{
			"buffer":0,
			"byteLength":177904,
			"byteOffset":533712,
			"target":34962
		},
		{
			"buffer":0,
			"byteLength":88952,
			"byteOffset":711616,
			"target":34962
		},
		{
			"buffer":0,
			"byteLength":177904,
			"byteOffset":800568,
			"target":34962
		},
		{
			"buffer":0,
			"byteLength":171510,
			"byteOffset":978472,
			"target":34963
		},
		{
			"buffer":0,
			"byteLength":23916,
			"byteOffset":1149984,
			"target":34962
		},
		{
			"buffer":0,
			"byteLength":23916,
			"byteOffset":1173900,
			"target":34962
		},
		{
			"buffer":0,
			"byteLength":15944,
			"byteOffset":1197816,
			"target":34962
		},
		{
			"buffer":0,
			"byteLength":7972,
			"byteOffset":1213760,
			"target":34962
		},
		{
			"buffer":0,
			"byteLength":15944,
			"byteOffset":1221732,
			"target":34962
		},
		{
			"buffer":0,
			"byteLength":10494,
			"byteOffset":1237676,
			"target":34963
		}
	],
	"buffers":[
		{
			"byteLength":1248172,
			"uri":"pistol.bin"
		}
	]
}
